<svg width="147" height="183" viewBox="0 0 147 183" fill="none" xmlns="http://www.w3.org/2000/svg">
<g filter="url(#filter0_d_725_13711)">
<path d="M65.0412 9.42028C65.0412 9.42028 72.7718 -1.16466 83.1042 6.98421C93.4376 15.1331 102.557 6.37028 102.557 6.37028C102.557 6.37028 99.9899 28.0909 83.7993 20.0694C73.8208 15.1258 74.3639 8.80738 65.0412 12.1276V9.42028Z" fill="#1F2326"/>
<path d="M63.0973 7.42729C63.0973 7.42729 65.7963 5.81325 67.3914 8.50296C68.9866 11.1927 66.8308 14.0335 65.0256 13.8089C63.2204 13.5842 62.0598 8.53817 62.0598 8.53817L63.0973 7.42729Z" fill="#88A8C8"/>
<path d="M65.2594 13.2168C64.9635 20.1916 59.0743 25.6052 52.105 25.3091C45.1357 25.013 39.7265 19.119 40.0223 12.1442C40.3182 5.16939 45.2485 -0.284588 52.2167 0.0115087C59.187 0.307605 65.5553 6.24196 65.2594 13.2168Z" fill="#1F2326"/>
<path d="M46.2364 2.29516C46.2364 2.29516 39.3334 1.61601 38.4509 6.99751C37.7299 11.3924 44.3826 12.7745 44.3826 12.7745L46.2364 2.29516Z" fill="#1F2326"/>
<path d="M46.7495 4.58955C40.6689 4.33072 40.3399 9.08379 40.3399 9.08379L38.8192 20.146C38.7665 23.6205 39.3644 26.6632 42.0427 28.3735C43.733 29.4523 45.8433 29.648 47.783 29.1397L53.4322 27.6592L55.347 8.66864C55.345 8.66656 52.8302 4.84734 46.7495 4.58955Z" fill="#E6BDA0"/>
<path d="M55.285 17.4751L63.896 36.9626L54.0354 40.1317L46.4258 23.5037L55.285 17.4751Z" fill="#E6BDA0"/>
<path d="M39.9644 15.7666L37.5489 18.3383C37.1816 18.8011 37.2261 19.4171 37.6596 19.8364L39.3902 20.91L39.9644 15.7666Z" fill="#E6BDA0"/>
<path d="M40.7372 15.8032C40.7568 16.2163 41.1085 16.5352 41.5213 16.5155C41.9341 16.4958 42.2527 16.1438 42.233 15.7307C42.2134 15.3176 41.8616 14.9988 41.4489 15.0184C41.0351 15.0391 40.7165 15.3901 40.7372 15.8032Z" fill="#1F2326"/>
<path d="M44.2016 13.4528C44.1561 13.459 44.1096 13.4611 44.062 13.4579L41.1913 13.2333C40.8137 13.2084 40.5282 12.8823 40.552 12.5034C40.5768 12.1255 40.9006 11.8408 41.2813 11.8636L44.152 12.0882C44.5296 12.1131 44.8151 12.4402 44.7913 12.8181C44.7695 13.1484 44.5171 13.4083 44.2016 13.4528Z" fill="#1F2326"/>
<path d="M39.0757 22.2572C39.0757 22.2572 40.4402 22.722 41.9557 21.7178" stroke="#CF9580" stroke-width="0.5741" stroke-miterlimit="10" stroke-linecap="round" stroke-linejoin="round"/>
<path d="M48.8423 28.8406C48.8423 28.8406 53.3702 27.1904 54.2858 24.3774C54.2858 24.3774 53.5575 28.3551 49.8675 31.1297L48.8423 28.8406Z" fill="#CF9580"/>
<path d="M42.6716 5.45829C42.6716 5.45829 42.9954 12.694 53.2191 15.127L57.7895 14.4944C57.7895 14.4944 56.4467 3.96538 54.4564 3.81112C52.466 3.6579 43.7506 2.7489 42.6716 5.45829Z" fill="#1F2326"/>
<path d="M48.5495 11.4514L50.2336 18.0546L52.1909 12.8004L48.5495 11.4514Z" fill="#1F2326"/>
<path d="M52.5188 19.4308C52.5188 19.4308 54.6136 23.397 58.1215 24.07L59.4974 17.5652L52.5188 19.4308Z" fill="#1F2326"/>
<path d="M49.9295 16.5992C49.5788 18.4358 50.7829 20.2093 52.6181 20.5602C54.4533 20.9112 56.2253 19.7061 56.576 17.8695C56.9267 16.0329 55.7226 14.2594 53.8874 13.9084C52.0533 13.5575 50.2802 14.7626 49.9295 16.5992Z" fill="#E6BDA0"/>
<path d="M57.4149 31.5322C57.4149 31.5322 67.8125 31.8397 71.6659 36.0731C71.6659 36.0731 85.5206 40.3012 90.8689 42.0167C95.1992 43.4061 96.6537 47.7523 93.0123 50.4783C91.8537 51.3458 90.4054 51.731 88.9696 51.5539L55.6439 44.5646L57.4149 31.5322Z" fill="#D9AC91"/>
<path d="M85.5599 44.6721L86.7175 72.2795L92.4289 72.2919L95.0792 47.1682L85.5599 44.6721Z" fill="#D9AC91"/>
<path d="M85.653 82.5831C88.683 84.4021 92.613 83.4186 94.4316 80.3862C96.2492 77.3538 95.2664 73.4207 92.2365 71.6006C89.2065 69.7816 85.2765 70.7651 83.4579 73.7975C81.6403 76.8309 82.6231 80.7641 85.653 82.5831Z" fill="#D9AC91"/>
<path d="M85.7947 50.8976C85.7947 50.8976 87.6785 48.9574 89.644 49.4647" stroke="#CE9E80" stroke-width="0.6309" stroke-miterlimit="10"/>
<path d="M61.0398 31.1594C61.0398 31.1594 70.1638 32.5695 71.6794 42.9267C73.1949 53.2838 67.1577 56.7542 69.7501 64.9496C72.3435 73.144 75.8762 75.7872 75.8762 75.7872L56.5233 85.547C56.5233 85.547 52.5022 77.2708 50.5533 64.96C50.5533 64.96 41.4489 54.8544 43.4382 47.5524C45.4275 40.2504 54.0467 31.6377 54.0467 31.6377L61.0398 31.1594Z" fill="#E6BDA0"/>
<mask id="mask0_725_13711" style="mask-type:luminance" maskUnits="userSpaceOnUse" x="43" y="31" width="33" height="55">
<path d="M61.0398 31.1594C61.0398 31.1594 70.1638 32.5695 71.6794 42.9267C73.1949 53.2838 67.1577 56.7542 69.7501 64.9496C72.3435 73.144 75.8762 75.7872 75.8762 75.7872L56.5233 85.547C56.5233 85.547 52.5022 77.2708 50.5533 64.96C50.5533 64.96 41.4489 54.8544 43.4382 47.5524C45.4275 40.2504 54.0467 31.6377 54.0467 31.6377L61.0398 31.1594Z" fill="white"/>
</mask>
<g mask="url(#mask0_725_13711)">
<path d="M49.9068 36.3288C49.9068 36.3288 58.4629 37.6343 55.1526 47.1094C52.4092 54.9621 42.5103 52.5706 40.551 51.8252L47.9609 65.4031L50.1168 69.5081C50.1168 69.5081 63.5567 69.7804 70.918 62.5913L74.6214 51.3914L71.6473 32.5427L62.2232 29.8416L61.5136 31.2599C61.5136 31.2599 68.6318 36.4633 65.666 38.6116C62.7001 40.7599 58.6098 37.8755 57.1046 36.9851C54.6312 35.5223 51.7885 34.2333 49.5509 34.6081L49.9068 36.3288Z" fill="#F3D488"/>
</g>
<mask id="mask1_725_13711" style="mask-type:luminance" maskUnits="userSpaceOnUse" x="43" y="31" width="33" height="55">
<path d="M61.0398 31.1594C61.0398 31.1594 70.1638 32.5695 71.6794 42.9267C73.1949 53.2838 67.1577 56.7542 69.7501 64.9496C72.3435 73.144 75.8762 75.7872 75.8762 75.7872L56.5233 85.547C56.5233 85.547 52.5022 77.2708 50.5533 64.96C50.5533 64.96 41.4489 54.8544 43.4382 47.5524C45.4275 40.2504 54.0467 31.6377 54.0467 31.6377L61.0398 31.1594Z" fill="white"/>
</mask>
<g mask="url(#mask1_725_13711)">
<path d="M50.5533 64.9599C50.5533 64.9599 62.2843 66.224 70.4339 58.3474L69.4532 63.8697C69.4532 63.8697 64.437 69.3102 50.1178 69.509L50.5533 64.9599Z" fill="#F3D488"/>
</g>
<path d="M50.5533 64.9599C50.5533 64.9599 61.0812 66.1764 69.175 59.4697" stroke="#D4B165" stroke-width="0.7289" stroke-miterlimit="10"/>
<path d="M55.1536 47.1095C55.1536 47.1095 52.9429 53.6785 47.2523 54.2779C47.2523 54.2779 35.6424 62.9444 31.0927 66.2408C27.409 68.9098 23.0497 67.508 23.0114 62.9568C23 61.5095 23.5473 60.1129 24.5404 59.06L49.9078 36.3289L55.1536 47.1095Z" fill="#E6BDA0"/>
<path d="M31.8645 60.2329L14.9922 38.3611L10.3215 41.6502L23.9301 65.9167L31.8645 60.2329Z" fill="#E6BDA0"/>
<path d="M9.91805 29.3331C6.39462 29.5992 3.75257 32.673 4.01843 36.1993C4.28429 39.7255 7.35565 42.3697 10.8791 42.1036C14.4025 41.8375 17.0445 38.7637 16.7787 35.2375C16.5128 31.7112 13.4415 29.0671 9.91805 29.3331Z" fill="#E6BDA0"/>
<path d="M28.0886 55.3369C28.0886 55.3369 28.5344 58.0049 26.962 59.2897" stroke="#CE9E80" stroke-width="0.6309" stroke-miterlimit="10"/>
<path d="M49.9068 36.3289C49.9068 36.3289 44.4313 37.5909 41.5441 43.8224C38.6569 50.0539 48.9975 45.3453 48.9975 45.3453L49.9068 36.3289Z" fill="#E6BDA0"/>
<path d="M51.8857 92.5776C51.8857 92.5776 41.5058 99.5504 31.4145 116.794C30.7328 117.96 30.6345 119.381 31.1197 120.641L49.764 169.108L56.5667 167.867L52.2137 149.267C51.5133 146.273 51.2713 143.197 51.3923 140.124C51.5899 135.111 50.813 126.313 44.061 120.09C44.061 120.09 59.786 109.54 64.947 103.941L51.8857 92.5776Z" fill="#E6BDA0"/>
<path d="M58.3895 85.2012L48.774 93.8511C48.774 93.8511 59.8202 110.187 60.7419 109.384C61.6636 108.58 67.616 106.903 67.616 106.903L58.3895 85.2012Z" fill="#80A1BC"/>
<path d="M55.4939 163.433C55.4939 163.509 53.0578 152.878 53.0578 152.878C53.0578 152.878 48.9457 155.424 44.2471 154.772L48.6271 166.258L55.4939 163.433Z" fill="#E7E4E1"/>
<path d="M47.7033 163.797L41.5182 168.159L37.2789 169.446C35.33 170.037 34.0048 171.844 34.0224 173.881L34.0307 174.835L58.014 172.499L56.425 162.97L47.7033 163.797Z" fill="#1F2326"/>
<path d="M58.1246 172.646L33.9531 175L33.7503 172.921L57.9219 170.568L58.1246 172.646Z" fill="black"/>
<path d="M66.1429 102.746C66.1429 102.746 73.258 120.393 86.5189 134.095L134.843 144.649L135.695 137.897L123.427 132.87C120.722 131.761 118.171 130.278 115.965 128.358C112.721 125.534 105.813 122.403 94.2279 123.866C94.2279 123.866 85.0562 98.4843 78.4521 94.1868L66.1429 102.746Z" fill="#E6BDA0"/>
<path d="M55.2478 83.2786C55.2478 83.2786 63.5753 76.0719 73.8984 73.7549C73.8984 73.7549 90.271 83.1316 83.1549 96.6827L85.7224 102.528C85.7224 102.528 72.9022 108.239 66.4915 111.38C66.4915 111.38 57.2868 97.7014 55.2478 83.2786Z" fill="#88A8C8"/>
<path d="M56.006 87.3455C56.006 87.3455 58.8633 100.482 64.3677 107.894" stroke="#7899AF" stroke-width="0.7431" stroke-miterlimit="10"/>
<path d="M132.941 136.684C133.003 136.728 122.581 132.506 122.581 132.506C122.581 132.506 122.132 137.72 118.862 141.158L131.229 143.912L132.941 136.684Z" fill="#E7E4E1"/>
<path d="M131.215 143.814L133.877 150.902L134.055 155.332C134.137 157.368 135.55 159.106 137.526 159.601L138.45 159.832L142.222 136.014L132.608 135.158L131.215 143.814Z" fill="#1F2326"/>
<path d="M142.393 135.946L138.59 159.951L136.53 159.624L140.332 135.619L142.393 135.946Z" fill="black"/>
</g>
<defs>
<filter id="filter0_d_725_13711" x="0" y="0" width="146.393" height="183" filterUnits="userSpaceOnUse" color-interpolation-filters="sRGB">
<feFlood flood-opacity="0" result="BackgroundImageFix"/>
<feColorMatrix in="SourceAlpha" type="matrix" values="0 0 0 0 0 0 0 0 0 0 0 0 0 0 0 0 0 0 127 0" result="hardAlpha"/>
<feOffset dy="4"/>
<feGaussianBlur stdDeviation="2"/>
<feComposite in2="hardAlpha" operator="out"/>
<feColorMatrix type="matrix" values="0 0 0 0 0 0 0 0 0 0 0 0 0 0 0 0 0 0 0.25 0"/>
<feBlend mode="normal" in2="BackgroundImageFix" result="effect1_dropShadow_725_13711"/>
<feBlend mode="normal" in="SourceGraphic" in2="effect1_dropShadow_725_13711" result="shape"/>
</filter>
</defs>
</svg>
