<svg width="92" height="181" viewBox="0 0 92 181" fill="none" xmlns="http://www.w3.org/2000/svg">
<path d="M32.0598 95.2864L28.1069 124.798C28.1069 124.798 31.9215 135.86 28.4386 149.936C24.9558 164.013 24.2354 173.396 24.2354 173.396L16.4109 172.888V123.725L16.7498 106.055L32.0598 95.2864Z" fill="#E6BDA0"/>
<path d="M16.4109 172.888V155.875C16.4109 155.875 21.2023 157.818 27.065 155.875L24.2354 173.397L16.4109 172.888Z" fill="#E7E4E1"/>
<path d="M16.3916 171L7.96278 174.648L3.73822 175.5C1.79686 175.892 0.344895 177.516 0.173958 179.489L0.0935974 180.412L25.5052 180.377L24.8489 171.01L16.3916 171Z" fill="#394044"/>
<path d="M25.5978 180.529L0.00201832 180.566L0 179.071C0 178.776 0.238077 178.537 0.533147 178.536L25.5948 178.5L25.5978 180.529Z" fill="black"/>
<path d="M43.301 123.653C43.301 123.653 42.6498 138.774 45.7541 146.778C48.8575 154.78 53.8075 174.755 53.8075 174.755L60.7569 174.689C60.7569 174.689 57.62 134.341 54.9278 123.653L50.982 99.4578L36.8959 106.408L43.301 123.653Z" fill="#E6BDA0"/>
<path d="M60.7569 172.587L59.1178 155.875C59.1178 155.875 54.3254 157.818 48.4637 155.875L52.9335 173.096L60.7569 172.587Z" fill="#E7E4E1"/>
<path d="M60.9747 171L69.4025 174.648L73.6271 175.5C75.5684 175.891 77.0204 177.516 77.1913 179.489L77.2717 180.412L51.8601 180.376L52.5163 171.009L60.9747 171Z" fill="#394044"/>
<path d="M51.7675 180.529L77.3632 180.565L77.3653 179.071C77.3653 178.776 77.1272 178.537 76.8321 178.536L51.7705 178.5L51.7675 180.529Z" fill="black"/>
<path d="M51.8611 96.1481C52.3515 88.2657 48.5848 82.3348 48.5848 82.3348L16.5697 81.647L14.7586 111.574L31.9235 112.221L33.0844 94.7175L36.1582 112.221L55.5189 111.571L51.8611 96.1481Z" fill="#274491"/>
<path d="M33.0845 94.7186L27.354 89.3738" stroke="#213A70" stroke-width="0.75" stroke-miterlimit="10"/>
<path d="M30.4309 33.8285C30.4309 33.8285 17.7144 31.2878 14.4716 35.5144C9.19905 42.3865 16.5697 81.6471 16.5697 81.6471L48.5848 82.3359C48.5848 82.3359 54.2868 58.4882 53.6976 46.3201C53.5399 43.0631 51.4887 40.2071 48.4942 38.9169C44.9035 37.3703 39.576 35.2224 35.5732 34.2344L30.4309 33.8285Z" fill="#D85965"/>
<path d="M46.0024 69.6132C46.0024 69.6132 59.2002 70.1922 57.4613 50.1355L49.8393 47.7668L46.0024 69.6132Z" fill="#D9AC91"/>
<path d="M44.2839 37.1748C44.2839 37.1748 59.3905 39.4713 59.1076 58.6915L49.9207 55.2972L44.2839 37.1748Z" fill="#D85965"/>
<path d="M39.692 34.2102L39.6258 17.0615L27.3306 17.1175L27.3967 34.2661C27.412 37.6615 30.1775 40.4016 33.5728 40.3863C36.9672 40.371 39.7072 37.6055 39.692 34.2102Z" fill="#E6BDA0"/>
<path d="M40.0664 17.9771C40.0664 17.9771 38.7722 32.6664 27.412 32.4314L27.3906 25.075L40.0664 17.9771Z" fill="#CF9580"/>
<path d="M32.7477 5.23118C37.3864 5.686 36.1562 13.0577 36.1562 13.0577L42.2581 14.3997C41.8592 21.8274 38.704 25.124 33.2625 25.3926C26.7639 25.7131 20.4239 19.305 18.9679 12.087C18.2119 8.33858 20.195 5.33905 20.195 5.33905C20.3486 5.32684 28.1568 4.78145 32.7477 5.23118Z" fill="#1F2326"/>
<path d="M16.8231 15.9939C16.4039 18.4145 18.5131 20.4587 20.9194 19.9622C22.2564 19.6864 23.3349 18.5723 23.568 17.2282C23.9872 14.8076 21.8779 12.7645 19.4716 13.26C18.1356 13.5357 17.0561 14.6488 16.8231 15.9939Z" fill="#CF9580"/>
<path d="M29.4358 29.9093L29.8163 29.9032C35.4247 29.8137 39.8975 25.1953 39.809 19.588L39.6279 8.12196C39.6055 6.67001 38.41 5.51211 36.958 5.5345L23.5924 5.74512C20.9999 5.78582 18.9303 7.92153 18.972 10.5141L19.1205 19.9156C19.2091 25.525 23.8274 29.9989 29.4358 29.9093Z" fill="#E6BDA0"/>
<path d="M28.749 16.627C28.7948 17.1174 29.2302 17.4786 29.7207 17.4328C30.2111 17.387 30.5723 16.9515 30.5265 16.4611C30.4807 15.9707 30.0452 15.6095 29.5548 15.6553C29.0634 15.7011 28.7032 16.1365 28.749 16.627Z" fill="#1F2326"/>
<path d="M21.1189 16.7244C21.1647 17.2148 21.6001 17.576 22.0906 17.5302C22.581 17.4845 22.9422 17.049 22.8964 16.5586C22.8506 16.0681 22.4151 15.7069 21.9247 15.7527C21.4333 15.7985 21.0731 16.233 21.1189 16.7244Z" fill="#1F2326"/>
<path d="M25.6629 21.827C25.3139 21.8179 25.0117 21.7314 24.7594 21.5676C24.2201 21.2165 24.1316 20.66 24.1235 20.5969L24.2802 16.8271C24.2883 16.6318 24.4297 16.4924 24.6516 16.4873C24.8479 16.4954 24.9996 16.6613 24.9914 16.8577L24.8317 20.5593H24.8327C24.8408 20.5593 24.9039 20.8167 25.1552 20.9764C25.4411 21.1555 25.8909 21.1647 26.4667 20.9947C26.656 20.9459 26.8534 21.0487 26.9083 21.2359C26.9633 21.4241 26.8554 21.6215 26.6662 21.6785C26.2979 21.7843 25.9631 21.8342 25.6629 21.827Z" fill="#CF9580"/>
<path d="M32.1168 13.9163C32.0639 13.9285 32.009 13.9366 31.952 13.9387L27.9116 14.0659C27.4608 14.0801 27.0844 13.726 27.0691 13.2743C27.0538 12.8235 27.4069 12.4481 27.8607 12.4318L31.9011 12.3046C32.3519 12.2904 32.7294 12.6444 32.7436 13.0962C32.7558 13.491 32.4862 13.8288 32.1168 13.9163Z" fill="#1F2326"/>
<path d="M22.9544 14.2928C22.9015 14.3061 22.8466 14.3132 22.7906 14.3152L20.3212 14.4037C19.8694 14.42 19.4919 14.067 19.4746 13.6172C19.4584 13.1655 19.8114 12.787 20.2622 12.7707L22.7316 12.6822C23.1834 12.6659 23.5619 13.019 23.5782 13.4697C23.5924 13.8635 23.3238 14.2033 22.9544 14.2928Z" fill="#1F2326"/>
<path d="M26.1788 23.7012L28.4244 23.4946" stroke="#CF9580" stroke-width="0.5749" stroke-miterlimit="10" stroke-linecap="round" stroke-linejoin="round"/>
<path d="M30.1684 0.018518C25.9794 0.225067 22.1231 2.04535 20.196 5.33996L19.7219 6.99539C19.7219 6.99539 21.9318 8.80346 30.0361 6.48665C31.0322 6.20175 31.9154 6.01862 32.6978 5.91789C33.8883 5.76323 35.0909 6.36049 35.5905 7.45224C36.8064 10.1119 36.2743 14.1951 36.2743 14.1951L42.2601 14.3996C42.4667 13.2834 42.5623 12.1225 42.5033 10.9259C42.139 3.57157 36.667 -0.303006 30.1684 0.018518Z" fill="#1F2326"/>
<path d="M38.3865 15.2228C37.484 17.8458 39.4681 20.5035 42.2387 20.3824C43.7782 20.3153 45.1803 19.2673 45.6819 17.8112C46.5834 15.1892 44.6003 12.5325 41.8297 12.6526C40.2902 12.7187 38.8871 13.7667 38.3865 15.2228Z" fill="#E6BDA0"/>
<path d="M33.7825 42.635L53.078 49.0085L52.3423 56.836C52.3423 56.836 36.6467 59.2871 17.3755 49.7207L33.7825 42.635Z" fill="#D9AC91"/>
<path d="M53.078 49.0083L81.0954 56.1103L80.3231 60.224C80.3231 60.224 53.4667 61.7879 49.7315 55.8122L53.078 49.0083Z" fill="#D9AC91"/>
<path d="M79.7666 59.4884C79.7666 59.4884 78.7094 61.9334 84.213 63.6845C84.213 63.6845 88.1842 64.409 88.986 68.2194C89.1345 68.9266 89.7531 69.4374 90.4756 69.4374C91.3842 69.4374 92.0852 68.6498 91.9916 67.7453C91.778 65.6706 90.4908 62.7932 87.7976 60.3136C84.1519 56.9579 81.0954 56.1094 81.0954 56.1094L79.7666 59.4884Z" fill="#D9AC91"/>
<path d="M36.9499 42.2461L25.5937 33.7349L16.3438 36.8026L15.4616 49.8762L17.3766 51.7128L36.9499 42.2461Z" fill="#D85965"/>
<path d="M13.4552 45.5764C13.4552 45.5764 15.6438 50.6526 17.2433 51.4005L19.4705 50.7005" stroke="#C14153" stroke-width="0.75" stroke-miterlimit="10"/>
<path d="M26.4515 35.1401C26.4515 35.1401 34.8702 40.1248 36.9499 42.2462L35.2273 43.0796" stroke="#C14153" stroke-width="0.75" stroke-miterlimit="10"/>
<path d="M46.4511 32.4976C46.4511 32.4976 44.9839 41.8971 42.9174 48.7356C41.0249 55.0002 40.8692 64.1799 43.7986 68.8481C44.2646 69.5899 45.1803 69.9196 46.0014 69.6123C48.8666 68.5419 55.2839 64.9492 53.6702 54.5586C51.6077 41.2815 52.1969 32.987 52.1969 32.987L46.4511 32.4976Z" fill="#E6BDA0"/>
<path d="M46.4511 32.4975L43.8596 25.4453C43.2094 23.6769 43.8189 21.6929 45.3502 20.595C46.8123 19.546 48.8443 18.5885 51.1916 18.8612C52.7453 19.0413 53.9632 20.2847 54.1515 21.8374C54.4567 24.3485 54.4852 28.6687 52.1979 32.988L46.4511 32.4975Z" fill="#E6BDA0"/>
<path d="M53.0698 21.1821H53.9266C54.5442 21.1821 55.115 21.5118 55.4233 22.048L55.8028 22.7074C56.5751 24.0504 56.7002 25.6764 56.106 27.108C55.5159 28.5294 54.3773 30.488 52.1968 32.987L50.981 23.8205L53.0698 21.1821Z" fill="#E6BDA0"/>
</svg>
