<svg width="178" height="176" viewBox="0 0 178 176" fill="none" xmlns="http://www.w3.org/2000/svg">
<path d="M89 176C138.153 176 178 168.772 178 159.855C178 150.938 138.153 143.71 89 143.71C39.8467 143.71 0 150.938 0 159.855C0 168.772 39.8467 176 89 176Z" fill="#ECEDEB"/>
<path d="M117.573 5.49146C117.573 5.49146 131.566 8.51412 137.114 14.3444C142.661 20.1748 140.742 35.1901 139.294 43.8269C137.847 52.4638 133.987 58.7264 138.571 61.749C143.154 64.7717 144.844 61.9652 144.844 61.9652C144.844 61.9652 138.571 71.4655 132.057 72.7612C125.544 74.057 116.377 66.7159 114.929 60.2371C113.482 53.7595 112.517 44.0431 113.723 37.3493C114.93 30.6555 117.09 28.3793 118.297 23.8459C119.503 19.3113 118.538 11.7541 118.538 11.7541L117.573 5.49146Z" fill="#DA5955"/>
<path d="M97.32 169.278C125.299 169.278 147.98 152.264 147.98 131.276C147.98 110.288 125.299 93.2737 97.32 93.2737C69.3411 93.2737 46.6596 110.288 46.6596 131.276C46.6596 152.264 69.3411 169.278 97.32 169.278Z" fill="#7EB9F5"/>
<path d="M54.3423 41.9183L53.2357 41.2576L48.0724 34.3254L52.1988 26.8573L61.4872 26.3203L62.5938 26.981L54.3423 41.9183Z" fill="#393762"/>
<path d="M63.6319 41.3813L54.3423 41.9183L49.1791 34.9861L53.3054 27.5169L62.5938 26.981L67.757 33.9132L63.6319 41.3813Z" fill="#636183"/>
<path d="M85.9915 38.7606C85.9915 38.7606 83.2256 41.2363 80.0913 46.3535C76.957 51.4697 69.0267 58.5679 67.5517 60.053C66.0767 61.5382 64.97 61.8691 64.97 61.8691C64.97 61.8691 62.3884 55.1018 61.6503 50.6452C60.9121 46.1886 59.8068 37.4404 59.8068 37.4404L62.7568 32.1582C62.7568 32.1582 60.3594 27.8665 59.4371 27.5368C58.5147 27.207 56.6713 27.7016 53.9054 29.8475C51.1396 31.9933 50.0329 34.1392 51.3238 36.7797C52.6146 39.4202 55.3804 42.0619 55.012 46.3524C54.6435 50.6441 54.8278 65.6639 56.487 70.6151C58.1463 75.5664 57.9621 75.5664 60.1752 75.5664C62.3884 75.5664 68.8424 73.0908 75.6649 69.9544C82.4874 66.8181 85.4388 62.1967 85.4388 62.1967L85.9915 38.7606Z" fill="#EAA888"/>
<path d="M100.009 36.5182C100.009 36.5182 95.2475 35.6982 90.6693 36.682C86.091 37.6657 83.7099 40.2884 82.7937 45.0425C81.8776 49.7965 78.5814 55.697 80.7797 60.1235C82.9779 64.55 84.9919 67.9916 85.1749 71.5981C85.3579 75.2046 84.809 81.4338 84.626 81.9251C84.443 82.4164 83.3439 83.8927 83.3439 83.8927C83.3439 83.8927 82.9779 86.5154 73.8202 84.2202C64.6638 81.9251 52.942 82.5813 40.8554 85.0403C28.7676 87.4992 22.3584 89.4667 21.8082 93.0721C21.2592 96.6786 21.2592 118.972 22.3571 125.529C23.4562 132.086 21.9911 138.807 21.9911 138.807C21.9911 138.807 17.4129 141.757 12.2845 143.561C7.15616 145.363 4.22603 146.347 5.14217 147.986C6.05831 149.625 9.53734 149.954 13.9326 149.954C18.3278 149.954 24.3712 149.626 24.3712 149.626C24.3712 149.626 18.8767 152.741 15.2134 154.871C11.5501 157.003 8.07109 157.494 9.71914 159.789C11.3672 162.084 27.117 161.428 30.9633 161.428C34.8096 161.428 39.2049 160.117 39.5709 158.642C39.9368 157.167 38.4717 152.085 38.4717 150.117C38.4717 148.15 37.9228 139.463 40.1198 135.528C42.318 131.594 45.6141 120.119 45.4311 115.693C45.2481 111.266 44.8822 108.48 44.8822 108.48C44.8822 108.48 65.9435 111.102 74.185 113.725C82.4265 116.348 100.741 118.479 109.348 114.709C117.956 110.939 121.435 106.349 120.153 99.7915C118.87 93.2348 115.391 88.9721 116.306 81.2678C117.222 73.5635 117.222 66.0229 119.419 62.2527C121.618 58.4824 126.562 51.7619 126.196 47.3354C125.83 42.9089 116.672 38.4835 112.094 36.8446C107.518 35.2068 100.009 36.5182 100.009 36.5182Z" fill="#F6BA99"/>
<path d="M21.8082 93.0707C21.2592 96.6771 21.2592 118.97 22.3571 125.528C23.4562 132.085 21.9911 138.805 21.9911 138.805C21.9911 138.805 17.4129 141.755 12.2845 143.559C7.15616 145.362 4.22603 146.346 5.14217 147.985C6.05831 149.623 9.53734 149.952 13.9326 149.952C17.6606 149.952 22.5588 149.717 23.9666 149.646C24.8491 149.39 26.5694 148.844 26.5694 148.477C26.5694 147.986 28.0344 136.182 28.2174 124.708C28.4004 113.233 29.8655 99.9549 29.8655 99.9549L28.2174 94.0533C28.2174 94.0533 25.8064 91.9966 23.3567 90.6084C22.4679 91.3482 21.9476 92.156 21.8082 93.0707Z" fill="#EAA888"/>
<path d="M26.2034 144.216C26.2034 144.216 25.6545 143.068 24.7383 140.937C23.8222 138.805 21.9911 138.805 21.9911 138.805C21.9911 138.805 17.4129 141.756 12.2845 143.559C7.15616 145.362 4.22603 146.346 5.14217 147.985C6.05831 149.624 9.53734 149.952 13.9326 149.952C17.6606 149.952 22.5588 149.717 23.9666 149.646C24.8491 149.39 26.5694 148.844 26.5694 148.477C26.5694 148.303 26.7536 146.699 26.9976 144.216H26.2034Z" fill="#DA5955"/>
<path d="M96.8955 89.3006C90.4613 86.1598 86.727 82.424 84.8612 80.1289C84.769 81.096 84.6807 81.7745 84.6246 81.9238C84.4417 82.4151 83.3426 83.8914 83.3426 83.8914C83.3426 83.8914 82.9766 86.5141 73.819 84.2189C64.6613 81.9238 52.9407 82.58 40.8541 85.0389C28.7663 87.4979 22.3571 89.4654 21.8069 93.0719C21.782 93.239 21.7571 93.4574 21.7346 93.7014C22.3857 94.5515 23.1487 95.4751 24.0051 96.3508C26.5693 98.9735 29.8654 99.9573 29.8654 99.9573C30.4144 102.252 33.8947 109.465 39.0231 109.465C44.1515 109.465 44.8834 108.482 44.8834 108.482C44.8834 108.482 65.9446 111.104 74.1861 113.727C82.4277 116.35 100.742 118.481 109.349 114.711C117.957 110.941 121.436 106.35 120.155 99.7936C119.62 97.0594 118.705 94.7231 117.883 92.3711C112.298 92.6419 103.356 92.4558 96.8955 89.3006Z" fill="#EDC13B"/>
<path d="M84.6247 81.9248C84.4417 82.4161 83.3426 83.8924 83.3426 83.8924C83.3426 83.8924 82.9766 86.5151 73.819 84.2199C64.6613 81.9248 52.9407 82.581 40.8542 85.0399C28.7664 87.4989 22.3571 89.4664 21.8069 93.0729C21.6961 93.796 21.609 95.2812 21.548 97.2309C23.9616 98.6938 26.8893 99.9517 29.8655 99.9572C29.8655 99.9572 33.5474 93.4072 42.8084 93.4072C52.0693 93.4072 91.2182 94.0556 91.2182 94.0556L96.4437 83.391C96.4437 83.391 90.2871 79.4581 85.0977 76.9011C84.9608 79.4169 84.7317 81.6385 84.6247 81.9248Z" fill="#EDA43B"/>
<path d="M116.385 82.7796C116.851 80.9691 126.187 71.3597 127.121 68.0172C128.054 64.6748 131.477 54.5082 128.365 48.659C125.254 42.8097 121.364 41.417 121.364 41.417L121.35 41.465C118.321 39.4105 114.554 37.7248 112.096 36.8457C107.518 35.2068 100.009 36.5181 100.009 36.5181C100.009 36.5181 95.2474 35.6981 90.6692 36.6819C86.091 37.6657 83.7098 40.2884 82.7937 45.0425C81.8776 49.7965 78.5814 55.697 80.7796 60.1235C82.9779 64.55 84.9919 67.9916 85.1749 71.5981C85.3579 75.2046 84.8089 81.4337 84.626 81.9251C84.443 82.4164 83.3438 83.8927 83.3438 83.8927C83.3438 83.8927 83.3377 83.9205 83.3252 83.9584C84.6795 86.4641 87.7951 91.7262 91.2194 94.0559C91.2194 94.0559 96.3478 94.0559 100.01 97.0061C103.673 99.9564 108.251 100.613 113.196 100.613C115.335 100.613 117.885 100.09 120.09 99.4985C118.877 93.6581 115.979 89.5949 116.177 83.1462C116.274 83.0314 116.351 82.9111 116.385 82.7796Z" fill="#393762"/>
<path d="M114.387 26.6222C114.387 26.6222 118.987 20.305 119.719 14.8958C120.452 9.48663 119.353 4.40502 112.76 1.28987C106.166 -1.82416 96.4598 1.28987 93.5297 4.4039C90.5995 7.51794 90.9655 13.5833 90.2336 14.8947C89.5004 16.206 86.2043 18.3374 86.5703 19.1563C86.9362 19.9763 89.3174 21.1227 89.3174 21.1227C89.3174 21.1227 90.2336 24.7292 90.5995 26.2044C90.9655 27.6795 92.0646 29.6471 93.3467 29.6471C94.6288 29.6471 98.5236 28.866 98.5236 28.866C98.5236 28.866 98.8809 33.9889 97.8017 36.0456C96.3391 38.8332 88.8357 55.5297 92.1331 57.1698C95.4292 58.8087 109.348 45.859 113.377 43.0725C117.407 40.286 112.095 36.8433 112.095 36.8433C112.095 36.8433 110.288 36.7776 111.02 32.6798C111.754 28.5842 114.387 26.6222 114.387 26.6222Z" fill="#F6BA99"/>
<path d="M30.9658 161.427C34.8121 161.427 39.2073 160.116 39.5732 158.641C39.8658 157.463 38.9932 153.992 38.6285 151.638C37.9588 151.851 37.1734 152.03 36.2772 152.084C33.53 152.248 30.4169 151.592 30.4169 151.592C30.4169 151.592 30.4168 150.772 29.8679 149.625C29.319 148.477 26.5718 148.477 26.5718 148.477L23.552 149.666C24.0636 149.64 24.3748 149.624 24.3748 149.624C24.3748 149.624 18.8805 152.738 15.2172 154.869C11.5539 157 8.07477 157.492 9.72282 159.787C11.3696 162.083 27.1195 161.427 30.9658 161.427Z" fill="#DA5955"/>
<path d="M122.081 16.0347C122.814 10.6255 119.355 4.40417 112.761 1.29013C107.244 -1.31585 99.5605 0.442269 95.4789 2.9101C96.1374 2.98809 96.8432 3.28779 97.5527 3.97967C100.207 6.57117 98.7589 11.3208 101.171 13.48C103.584 15.6392 104.79 14.9919 104.79 14.9919C104.79 14.9919 107.444 11.1057 108.65 14.9919C109.856 18.878 108.167 20.606 106.961 21.0372C105.754 21.4695 104.307 21.6845 104.307 21.6845C104.307 21.6845 110.781 26.7918 114.388 26.6213C114.388 26.6213 121.347 21.4439 122.081 16.0347Z" fill="#DA5955"/>
<path d="M57.5251 44.248L56.4185 43.5873L51.2553 36.6551L55.3804 29.187L64.6688 28.6511L65.7754 29.3107L57.5251 44.248Z" fill="#393762"/>
<path d="M66.8135 43.712L57.5251 44.2479L52.3619 37.3157L56.487 29.8476L65.7754 29.3105L70.9386 36.2428L66.8135 43.712Z" fill="#636183"/>
<path d="M131.434 106.35C130.633 104.764 129.222 100.78 129.222 97.7569C129.222 94.7342 125.352 86.9463 125.352 85.2194C125.352 84.337 126.634 71.0564 128.14 64.9877C130.25 58.6159 130.076 51.7227 128.364 48.6588C126.653 45.5949 119.806 46.152 117.939 51.1656C116.072 56.1793 116.185 65.8968 116.185 65.8968C115.564 70.2709 115.134 80.0097 114.978 85.8589C114.84 91.0575 116.078 96.3096 118.854 100.045C122.801 105.356 124.671 112.329 125.877 112.329C127.083 112.329 133.481 111.612 133.481 111.612C133.481 111.612 133.781 111.004 131.434 106.35Z" fill="#F6BA99"/>
<path d="M134.886 117.278C134.886 117.278 136.092 111.233 135.85 109.937C135.609 108.641 131.508 109.505 129.819 109.505C128.13 109.505 126.924 109.288 127.165 110.152C127.407 111.015 130.784 111.231 130.784 111.231L131.99 111.664L134.886 117.278Z" fill="#F6BA99"/>
<path d="M143.156 113.002H118.308V116.025H143.156V113.002Z" fill="#636183"/>
<path d="M152.322 106.308H141.466V122.287H152.322V106.308Z" fill="#636183"/>
<path d="M118.789 106.308H107.934V122.287H118.789V106.308Z" fill="#636183"/>
<path d="M122.891 110.627L124.254 116.554C124.442 117.368 125.261 117.939 126.19 117.894C127.884 117.813 130.514 117.675 132.057 117.536C134.47 117.32 135.194 117.969 135.434 116.457C135.558 115.685 135.744 114.236 135.896 113.004C136.037 111.865 135.016 110.882 133.738 110.923C131.861 110.984 129.486 111.058 128.922 111.058C127.957 111.059 124.822 108.683 122.891 110.627Z" fill="#F6BA99"/>
</svg>
