<svg width="225" height="196" viewBox="0 0 225 196" fill="none" xmlns="http://www.w3.org/2000/svg">
<g filter="url(#filter0_d_725_13070)">
<path d="M112.5 188C172.423 188 221 145.915 221 94C221 42.0852 172.423 0 112.5 0C52.5771 0 4 42.0852 4 94C4 145.915 52.5771 188 112.5 188Z" fill="#F2E6DC"/>
<path d="M26.0895 150.853C45.9072 173.426 77.2386 188 112.5 188C147.761 188 179.093 173.426 198.91 150.853H26.0895Z" fill="#E6D0BE"/>
<path d="M16.8408 138.395H208.159C209.171 136.81 210.128 134.998 211.03 133.412H13.9699C14.8713 134.998 15.8292 136.81 16.8408 138.395Z" fill="#E6D0BE"/>
<path d="M218.881 112.573H6.11937C6.50748 114.159 6.94563 115.971 7.43525 117.556H217.565C218.054 115.971 218.493 114.159 218.881 112.573Z" fill="#E6D0BE"/>
<path d="M4 94.0009C4 95.5957 4.04636 97.1711 4.13696 98.7567H220.863C220.954 97.1711 221 95.5958 221 94.0009C221 93.925 220.998 93.7734 220.998 93.7734H4.00166C4.00142 93.7734 4 93.925 4 94.0009Z" fill="#E6D0BE"/>
<path d="M113.071 71.5749L113.04 71.5696C108.37 70.7489 104.716 67.5916 103.756 63.5471L103.75 63.5737C102.802 67.6204 99.1579 70.7861 94.4896 71.6177L94.5203 71.623C99.1911 72.4437 102.845 75.601 103.805 79.6454L103.811 79.6188C104.759 75.5723 108.403 72.4065 113.071 71.5749Z" fill="white"/>
<path d="M105.105 53.7868L105.078 53.7822C101.056 53.0754 97.9086 50.3562 97.082 46.873L97.0766 46.896C96.2608 50.381 93.1221 53.1075 89.1017 53.8237L89.1281 53.8283C93.1508 54.5351 96.2978 57.2543 97.1245 60.7375L97.1299 60.7146C97.9457 57.2295 101.084 54.5031 105.105 53.7868Z" fill="white"/>
<path d="M83.8632 58.8812L83.842 58.8775C80.607 58.309 78.0763 56.1223 77.4114 53.3213L77.4072 53.3397C76.7511 56.1423 74.227 58.3348 70.9939 58.9108L71.0152 58.9145C74.2501 59.483 76.7808 61.6696 77.4457 64.4707L77.45 64.4523C78.106 61.6498 80.63 59.4572 83.8632 58.8812Z" fill="white"/>
<path d="M168.789 162.701C162.511 162.701 156.716 158.947 155.002 153.313L125.299 49.073C124.403 45.9271 124.925 42.669 126.768 39.8988C128.612 37.1277 131.568 35.1607 135.093 34.3598L167.783 26.932C170.446 26.3267 173.236 26.6696 175.639 27.8975C178.041 29.1246 179.786 31.098 180.553 33.4542L214.806 138.68C215.864 142.157 215.337 145.772 213.322 148.86C211.307 151.95 208.046 154.142 204.138 155.035L172.284 162.307C171.118 162.573 169.945 162.701 168.789 162.701ZM170.337 26.8519C169.511 26.8519 168.674 26.9421 167.843 27.1307L135.153 34.5587C128.035 36.1761 123.718 42.6651 125.53 49.0239L155.232 153.262C157.228 159.823 164.851 163.792 172.223 162.108L204.078 154.836C207.923 153.958 211.133 151.8 213.116 148.759C215.1 145.718 215.619 142.158 214.578 138.734L180.325 33.51C179.024 29.5141 174.828 26.8519 170.337 26.8519Z" fill="#D3BBA3"/>
<path d="M153.034 163.913C146.196 163.913 140.094 159.585 138.834 153.456L118.835 46.3737C118.231 43.1421 119.079 39.8964 121.223 37.2348C123.368 34.5723 126.564 32.7974 130.223 32.2369L164.168 27.0359C166.933 26.6119 169.734 27.1523 172.055 28.5563C174.376 29.9601 175.956 32.0698 176.506 34.4967L201.033 142.89C202.55 150.272 196.97 157.328 188.595 158.619L155.514 163.722C154.682 163.851 153.852 163.913 153.034 163.913ZM165.974 27.1038C165.39 27.1038 164.801 27.1476 164.21 27.2382L130.264 32.4392C122.871 33.5719 117.849 39.8083 119.069 46.3408L139.068 153.422C140.455 160.171 147.815 164.702 155.473 163.52L188.554 158.417C196.8 157.145 202.293 150.197 200.8 142.928L176.273 34.5363C175.287 30.1813 170.863 27.1038 165.974 27.1038Z" fill="#363E44"/>
<path d="M186.026 156.519L152.945 161.622C145.209 162.816 137.822 158.35 136.445 151.649L116.819 46.3817C115.604 39.8669 120.651 33.7138 128.152 32.5645L162.097 27.3628C167.749 26.4968 173.16 29.7107 174.266 34.5898L198.414 141.137C199.896 148.348 194.349 155.235 186.026 156.519Z" fill="#EFBC73"/>
<path d="M152.763 155.939C152.707 155.939 152.657 155.904 152.646 155.855L129.116 47.1322C129.104 47.0764 129.146 47.0228 129.211 47.0123C129.276 47.0017 129.337 47.0386 129.349 47.0943L152.879 155.817C152.891 155.873 152.849 155.927 152.785 155.937C152.777 155.938 152.77 155.939 152.763 155.939Z" fill="#D87355"/>
<path d="M185.182 148.238C185.126 148.238 185.077 148.204 185.066 148.155L161.013 42.6029C161 42.5473 161.042 42.4933 161.106 42.4822C161.17 42.4713 161.232 42.5074 161.245 42.5631L185.298 148.115C185.311 148.171 185.269 148.225 185.205 148.236C185.197 148.237 185.189 148.238 185.182 148.238Z" fill="#D87355"/>
<path d="M174.451 35.4043L174.266 34.5898C173.16 29.7106 167.749 26.4969 162.097 27.3628L128.152 32.5644C121.324 33.6107 116.532 38.8024 116.642 44.6392L174.451 35.4043Z" fill="#D87355"/>
<path d="M123.705 40.4893C123.685 40.4893 123.665 40.4849 123.646 40.4756C123.589 40.4474 123.569 40.3845 123.602 40.3354C123.977 39.7702 124.302 39.0864 124.541 38.3578C125.203 36.3416 125.035 34.4589 124.174 34.2466C123.775 34.1483 123.249 34.4343 122.729 35.0311C122.179 35.6631 121.694 36.5664 121.363 37.5745C121.136 38.267 120.998 38.9647 120.964 39.592C120.961 39.6486 120.903 39.6941 120.84 39.6898C120.774 39.6872 120.724 39.6391 120.727 39.5824C120.762 38.9395 120.903 38.2258 121.135 37.5183C121.474 36.4864 121.973 35.5593 122.54 34.9076C123.13 34.2293 123.733 33.9244 124.238 34.049C125.257 34.3002 125.49 36.2175 124.769 38.414C124.524 39.1585 124.192 39.8583 123.808 40.4377C123.786 40.4708 123.746 40.4893 123.705 40.4893Z" fill="#363E44"/>
<path d="M123.758 36.3886C123.664 36.3886 123.571 36.3777 123.481 36.3554C122.462 36.1041 122.119 34.5208 122.7 32.7508C122.973 31.9195 123.411 31.1812 123.934 30.6716C124.478 30.1422 125.053 29.919 125.554 30.0425C126.574 30.2938 126.917 31.8771 126.335 33.6471C126.062 34.4784 125.624 35.2167 125.101 35.7263C124.655 36.1602 124.188 36.3886 123.758 36.3886ZM125.276 30.2147C124.916 30.2147 124.51 30.4195 124.112 30.8081C123.612 31.2949 123.191 32.0048 122.928 32.8069C122.401 34.4108 122.684 35.9453 123.546 36.1576C123.954 36.2581 124.444 36.0568 124.924 35.5896C125.424 35.1028 125.844 34.3929 126.107 33.5908C126.634 31.9869 126.351 30.4524 125.489 30.24C125.421 30.2231 125.349 30.2147 125.276 30.2147Z" fill="#363E44"/>
<path d="M125.16 31.7194C125.066 31.7194 124.973 31.7085 124.883 31.6862C123.864 31.4349 123.521 29.8516 124.102 28.0816C124.375 27.2503 124.813 26.512 125.336 26.0024C125.88 25.4731 126.455 25.2498 126.956 25.3733C127.976 25.6246 128.319 27.2079 127.737 28.9779C127.464 29.8092 127.026 30.5475 126.503 31.0571C126.057 31.491 125.59 31.7194 125.16 31.7194ZM126.678 25.5455C126.318 25.5455 125.912 25.7503 125.513 26.1389C125.014 26.6257 124.593 27.3356 124.33 28.1377C123.803 29.7416 124.086 31.2761 124.948 31.4884C125.356 31.5889 125.846 31.3876 126.326 30.9204C126.826 30.4336 127.246 29.7237 127.509 28.9216C128.036 27.3177 127.753 25.7832 126.891 25.5709C126.822 25.5539 126.751 25.5455 126.678 25.5455Z" fill="#363E44"/>
<path d="M126.892 27.2456C126.798 27.2456 126.706 27.2346 126.615 27.2124C125.596 26.9611 125.253 25.3779 125.834 23.6079C126.107 22.7765 126.545 22.0382 127.068 21.5286C127.612 20.9993 128.188 20.7758 128.688 20.8995C129.708 21.1508 130.051 22.7341 129.47 24.5041C129.197 25.3354 128.758 26.0737 128.235 26.5833C127.789 27.0172 127.323 27.2456 126.892 27.2456ZM128.411 21.0717C128.05 21.0717 127.645 21.2766 127.246 21.6651C126.746 22.1519 126.326 22.8619 126.062 23.664C125.536 25.2678 125.819 26.8023 126.68 27.0146C127.089 27.1152 127.578 26.9138 128.058 26.4466C128.558 25.9598 128.978 25.2499 129.242 24.4478C129.768 22.8439 129.485 21.3094 128.624 21.0971C128.555 21.0801 128.484 21.0717 128.411 21.0717Z" fill="#363E44"/>
<path d="M128.399 23.0581C128.305 23.0581 128.212 23.0472 128.122 23.0249C127.103 22.7736 126.76 21.1904 127.341 19.4204C127.614 18.589 128.052 17.8507 128.575 17.3411C129.119 16.8118 129.694 16.5883 130.195 16.712C131.215 16.9633 131.558 18.5466 130.976 20.3166C130.703 21.1479 130.265 21.8862 129.742 22.3958C129.296 22.8298 128.829 23.0581 128.399 23.0581ZM129.917 16.8843C129.557 16.8843 129.151 17.0892 128.752 17.4777C128.253 17.9645 127.832 18.6744 127.569 19.4766C127.042 21.0804 127.325 22.6149 128.187 22.8272C128.595 22.928 129.085 22.7265 129.565 22.2592C130.065 21.7724 130.485 21.0624 130.748 20.2604C131.275 18.6565 130.992 17.122 130.13 16.9097C130.062 16.8927 129.99 16.8843 129.917 16.8843Z" fill="#363E44"/>
<path d="M129.89 18.5247C129.795 18.5247 129.702 18.5138 129.611 18.4913C128.591 18.2401 128.248 16.6568 128.83 14.8868C129.103 14.0554 129.541 13.317 130.064 12.8075C130.608 12.2781 131.183 12.0546 131.684 12.1783C132.185 12.3019 132.539 12.7543 132.679 13.452C132.814 14.1239 132.738 14.9517 132.465 15.7828C131.936 17.3942 130.849 18.5247 129.89 18.5247ZM131.406 12.3506C131.046 12.3506 130.64 12.5556 130.241 12.944C129.742 13.4309 129.321 14.1407 129.058 14.943C128.531 16.5468 128.814 18.0813 129.676 18.2937C130.538 18.506 131.711 17.3304 132.237 15.7267C132.501 14.9246 132.575 14.1293 132.446 13.4874C132.322 12.8715 132.028 12.4768 131.619 12.376C131.55 12.3591 131.479 12.3506 131.406 12.3506Z" fill="#363E44"/>
<path d="M131.707 14.1864C131.613 14.1864 131.52 14.1754 131.43 14.1532C130.411 13.9019 130.068 12.3186 130.649 10.5486C131.23 8.77866 132.485 7.58954 133.503 7.84021C134.523 8.09149 134.866 9.6748 134.285 11.4448C134.012 12.2762 133.573 13.0145 133.05 13.5241C132.605 13.958 132.138 14.1864 131.707 14.1864ZM133.23 8.013C132.396 8.013 131.362 9.12713 130.877 10.6047C130.35 12.2086 130.633 13.7431 131.495 13.9554C131.904 14.0561 132.393 13.8545 132.873 13.3874C133.373 12.9006 133.793 12.1907 134.057 11.3885C134.583 9.78462 134.3 8.25011 133.438 8.03776C133.371 8.02112 133.301 8.013 133.23 8.013Z" fill="#363E44"/>
<path d="M133.509 9.50143C133.415 9.50143 133.322 9.49044 133.232 9.46825C132.212 9.21697 131.869 7.63366 132.451 5.86368C132.724 5.03237 133.162 4.29404 133.685 3.78449C134.229 3.25521 134.804 3.03166 135.305 3.15535C135.806 3.27894 136.16 3.73117 136.3 4.42903C136.435 5.1008 136.359 5.92861 136.086 6.75982C135.813 7.59102 135.375 8.32957 134.852 8.83902C134.406 9.27316 133.939 9.50143 133.509 9.50143ZM135.027 3.32764C134.667 3.32764 134.261 3.53248 133.862 3.92102C133.363 4.40787 132.942 5.11775 132.679 5.91988C132.152 7.52373 132.435 9.05825 133.297 9.27059C133.705 9.37117 134.195 9.16961 134.675 8.70259C135.174 8.21574 135.595 7.50586 135.858 6.70373C136.122 5.90149 136.196 5.10624 136.067 4.46426C135.943 3.84849 135.649 3.45379 135.24 3.35301C135.171 3.33606 135.1 3.32764 135.027 3.32764Z" fill="#363E44"/>
<path d="M166.061 33.3431C166.033 33.3431 166.005 33.3347 165.983 33.3176C165.394 32.8696 164.808 32.2987 164.287 31.6669C163.529 30.7454 162.975 29.7787 162.729 28.9446C162.472 28.0784 162.579 27.4487 163.028 27.1711C163.477 26.8937 164.199 27.0116 165.061 27.5035C165.891 27.9771 166.765 28.7456 167.524 29.667C168.071 30.3319 168.518 31.03 168.816 31.6862C168.84 31.739 168.81 31.7987 168.749 31.8194C168.689 31.8399 168.62 31.8143 168.596 31.7614C168.304 31.1206 167.867 30.4377 167.331 29.7864C166.589 28.8849 165.736 28.1352 164.93 27.6751C164.167 27.2397 163.524 27.1164 163.166 27.3384C162.807 27.5599 162.731 28.1268 162.958 28.8936C163.198 29.7038 163.738 30.6463 164.48 31.5475C164.99 32.1667 165.564 32.7255 166.139 33.1634C166.188 33.2008 166.193 33.2657 166.15 33.3083C166.127 33.3313 166.094 33.3431 166.061 33.3431Z" fill="#363E44"/>
<path d="M164.257 29.6151C163.345 29.6151 162.103 29.1029 160.975 28.1924C159.338 26.8703 158.65 25.2808 159.411 24.574C160.171 23.8672 162.049 24.3492 163.687 25.6717C164.457 26.2931 165.046 27.0045 165.347 27.6746C165.659 28.3693 165.625 28.9431 165.252 29.2901C165.015 29.5103 164.67 29.6151 164.257 29.6151ZM160.391 24.4604C160.05 24.4604 159.769 24.5417 159.584 24.7142C158.937 25.3159 159.648 26.8401 161.137 28.0423C162.626 29.2446 164.431 29.752 165.078 29.1502C165.386 28.864 165.403 28.3665 165.126 27.7491C164.838 27.1073 164.269 26.423 163.525 25.8221C162.463 24.9644 161.24 24.4604 160.391 24.4604Z" fill="#363E44"/>
<path d="M159.866 26.2283C158.954 26.2283 157.712 25.7162 156.585 24.8057C155.815 24.1842 155.225 23.4728 154.924 22.8027C154.612 22.1079 154.646 21.5342 155.02 21.1873C155.393 20.8402 156.051 20.7707 156.873 20.9911C157.666 21.2039 158.526 21.6634 159.296 22.2849C160.066 22.9064 160.656 23.6178 160.956 24.2879C161.268 24.9827 161.234 25.5565 160.861 25.9035C160.624 26.1234 160.279 26.2282 159.866 26.2283ZM156.006 21.0695C155.656 21.0695 155.377 21.1561 155.193 21.3273C154.885 21.6135 154.868 22.111 155.146 22.7283C155.434 23.3702 156.002 24.0546 156.746 24.6555C158.236 25.8577 160.04 26.3649 160.688 25.7634C160.995 25.4771 161.012 24.9796 160.735 24.3623C160.447 23.7203 159.879 23.036 159.135 22.4351C158.391 21.8343 157.562 21.3912 156.803 21.1874C156.509 21.1087 156.241 21.0695 156.006 21.0695Z" fill="#363E44"/>
<path d="M155.846 22.6665C154.934 22.6665 153.692 22.1545 152.565 21.244C150.927 19.9217 150.239 18.3323 151 17.6255C151.76 16.9188 153.638 17.4007 155.276 18.7232C156.046 19.3446 156.636 20.056 156.936 20.726C157.248 21.4208 157.214 21.9946 156.841 22.3416C156.604 22.5616 156.259 22.6665 155.846 22.6665ZM151.98 17.5117C151.639 17.5117 151.359 17.5931 151.173 17.7656C150.526 18.3673 151.237 19.8914 152.726 21.0937C154.215 22.296 156.02 22.803 156.668 22.2015C156.975 21.9153 156.992 21.4177 156.715 20.8004C156.427 20.1585 155.858 19.4742 155.114 18.8734C154.052 18.0157 152.829 17.5117 151.98 17.5117Z" fill="#363E44"/>
<path d="M152.029 19.4258C151.116 19.4259 149.875 18.9138 148.747 18.0033C147.109 16.681 146.422 15.0915 147.182 14.3847C147.942 13.6779 149.821 14.1602 151.458 15.4824C153.096 16.8046 153.783 18.3941 153.023 19.101C152.787 19.321 152.441 19.4258 152.029 19.4258ZM148.163 14.271C147.822 14.271 147.541 14.3524 147.355 14.5249C146.708 15.1266 147.419 16.6507 148.908 17.8531C150.398 19.0552 152.203 19.5627 152.85 18.961C153.497 18.3591 152.786 16.835 151.297 15.6328C150.234 14.775 149.011 14.271 148.163 14.271Z" fill="#363E44"/>
<path d="M147.826 16.0333C146.914 16.0333 145.672 15.5211 144.545 14.6106C143.775 13.9892 143.185 13.2778 142.884 12.6078C142.573 11.9129 142.606 11.3391 142.98 10.9922C143.74 10.2855 145.618 10.7673 147.256 12.0898C148.894 13.412 149.581 15.0015 148.821 15.7083C148.584 15.9285 148.239 16.0333 147.826 16.0333ZM143.961 10.8786C143.619 10.8786 143.339 10.9599 143.153 11.1324C142.845 11.4185 142.829 11.9161 143.106 12.5334C143.394 13.1753 143.962 13.8596 144.706 14.4605C146.196 15.6628 148.001 16.1701 148.648 15.5684C149.295 14.9666 148.584 13.4426 147.095 12.2403C146.032 11.3826 144.809 10.8786 143.961 10.8786Z" fill="#363E44"/>
<path d="M144.003 12.4633C143.743 12.4633 143.452 12.4214 143.137 12.3368C142.344 12.124 141.483 11.6646 140.714 11.0431C139.944 10.4216 139.354 9.71025 139.053 9.04013C138.741 8.34535 138.775 7.77159 139.149 7.42456C139.522 7.07753 140.18 7.00798 141.002 7.22844C141.795 7.4412 142.655 7.90072 143.425 8.52225C144.195 9.14368 144.785 9.8551 145.085 10.5252C145.397 11.22 145.363 11.7938 144.99 12.1408C144.76 12.3548 144.421 12.4633 144.003 12.4633ZM140.135 7.30693C139.785 7.30693 139.506 7.39353 139.322 7.56469C139.014 7.8509 138.997 8.34843 139.275 8.96575C139.563 9.60762 140.131 10.292 140.875 10.8929C141.62 11.4937 142.448 11.9368 143.207 12.1406C143.937 12.3366 144.509 12.287 144.817 12.0008C145.124 11.7146 145.141 11.217 144.864 10.5997C144.576 9.95773 144.008 9.27343 143.264 8.67255C142.52 8.07167 141.691 7.62859 140.932 7.42476C140.638 7.34607 140.371 7.30693 140.135 7.30693Z" fill="#363E44"/>
<path d="M139.787 8.74338C139.527 8.74338 139.236 8.70146 138.921 8.61681C138.128 8.40405 137.268 7.94464 136.498 7.32311C135.728 6.70158 135.139 5.99026 134.838 5.32014C134.526 4.62536 134.56 4.0516 134.933 3.70457C135.307 3.35744 135.965 3.28809 136.787 3.50845C137.579 3.72121 138.44 4.18073 139.21 4.80226C139.98 5.42379 140.569 6.13511 140.87 6.80523C141.182 7.50001 141.148 8.07377 140.775 8.4208C140.545 8.63489 140.206 8.74338 139.787 8.74338ZM135.92 3.58704C135.569 3.58704 135.291 3.67365 135.107 3.8448C134.799 4.13101 134.782 4.62854 135.059 5.24586C135.347 5.88773 135.916 6.57213 136.66 7.17302C137.404 7.77379 138.232 8.21688 138.992 8.4208C139.722 8.61681 140.293 8.56719 140.601 8.28098C140.909 7.99477 140.926 7.49724 140.649 6.87992C140.361 6.23805 139.792 5.55365 139.048 4.95277C138.304 4.35189 137.476 3.9088 136.716 3.70498C136.423 3.62619 136.155 3.58704 135.92 3.58704Z" fill="#363E44"/>
<path d="M102.808 187.669C102.808 187.669 95.8663 146.858 66.2012 146.168C36.072 145.468 31.4519 187.547 31.4519 187.547L102.808 187.669Z" fill="#D87355"/>
<path d="M69.4669 175.042C66.486 175.042 63.5648 174.999 60.7045 174.914C51.208 174.63 42.5313 173.864 35.6124 172.698C35.548 172.688 35.5061 172.634 35.5186 172.578C35.531 172.522 35.5934 172.486 35.6576 172.497C42.9805 173.73 63.6653 176.317 97.4999 173.703C97.5675 173.698 97.6227 173.74 97.6286 173.796C97.6344 173.853 97.5863 173.903 97.5211 173.908C87.7552 174.663 78.3544 175.042 69.4669 175.042Z" fill="#84524D"/>
<path d="M71.2501 109.84H67.854C65.1149 109.84 62.8944 107.917 62.8944 105.544L62.8945 85.037C62.8945 82.664 65.115 80.7402 67.8542 80.7402H71.2503C73.9894 80.7402 76.2099 82.664 76.2099 85.037L76.2098 105.544C76.2095 107.917 73.9891 109.84 71.2501 109.84Z" fill="#84524D"/>
<path d="M82.9477 102.554C79.9024 105.093 69.6918 99.6167 69.6918 99.6167L62.0579 91.3834C61.1771 86.289 65.2298 81.5407 71.1099 80.7775C76.9901 80.0144 82.4709 83.5256 83.3517 88.6199C83.3517 88.6199 86.0494 99.9678 82.9477 102.554Z" fill="#84524D"/>
<path d="M82.5476 91.2043C82.5476 91.2043 86.0025 93.5274 85.9674 94.2637C85.9256 95.1425 82.6891 96.0953 82.6891 96.0953C82.6891 96.0953 82.6281 91.2005 82.5476 91.2043Z" fill="#84524D"/>
<path d="M73.2235 90.1894C73.2235 90.1894 74.8353 89.5175 76.7322 89.5917C77.1359 89.6075 76.2289 92.3758 75.854 92.2024C74.2058 91.4399 73.2235 90.1894 73.2235 90.1894Z" fill="white"/>
<mask id="mask0_725_13070" style="mask-type:luminance" maskUnits="userSpaceOnUse" x="73" y="89" width="9" height="4">
<path d="M73.2235 90.1896C73.2235 90.1896 75.5941 89.2015 77.969 89.7542C80.3439 90.3069 81.8239 92.1912 81.8239 92.1912C81.8239 92.1912 79.4533 93.1793 77.0784 92.6266C74.7033 92.0738 73.2235 90.1896 73.2235 90.1896Z" fill="white"/>
</mask>
<g mask="url(#mask0_725_13070)">
<path d="M76.8163 89.5228C78.1274 88.4848 80.1617 88.5643 81.3598 89.7003C82.5579 90.8362 82.4661 92.5986 81.155 93.6366C79.8439 94.6746 77.8096 94.5952 76.6115 93.4591C75.4134 92.3231 75.5052 90.5607 76.8163 89.5228Z" fill="#363E44"/>
</g>
<path d="M58.8466 81.4683C58.8466 81.4683 55.4541 91.8753 63.5746 94.7534L65.4532 93.1002L70.3764 94.4885L67.9748 89.6946C67.2912 87.8251 68.7523 85.8811 71.0024 85.6666L80.824 84.7303L79.9374 80.2111C72.895 77.4685 65.863 77.4378 58.8466 81.4683Z" fill="#363E44"/>
<path d="M69.5424 78.9849C68.4802 79.3275 67.2985 78.8592 66.9031 77.9389C66.5076 77.0186 66.8412 75.5132 67.9034 75.1707C68.9656 74.8281 70.3543 75.778 70.7497 76.6983C71.1452 77.6186 70.6046 78.6423 69.5424 78.9849Z" fill="#363E44"/>
<path d="M71.1418 79.3158C70.0212 79.1681 69.2512 78.2614 69.4217 77.2905C69.5922 76.3197 70.7281 75.1445 71.8487 75.2922C72.9692 75.4399 73.6501 76.8548 73.4796 77.8256C73.3089 78.7963 72.2623 79.4635 71.1418 79.3158Z" fill="#363E44"/>
<path d="M74.5683 80.0559C73.1131 79.6294 72.3327 78.2616 72.825 77.0009C73.3174 75.7403 75.1539 74.4042 76.609 74.8308C78.0642 75.2574 78.5869 77.285 78.0946 78.5457C77.6023 79.8064 76.0235 80.4826 74.5683 80.0559Z" fill="#363E44"/>
<path d="M66.3478 79.534C65.2988 79.9061 64.1003 79.4711 63.6709 78.5623C63.2414 77.6537 63.5186 76.1397 64.5675 75.7675C65.6164 75.3954 67.0398 76.306 67.4693 77.2148C67.8988 78.1235 67.3966 79.1618 66.3478 79.534Z" fill="#363E44"/>
<path d="M77.1691 80.2232C76.4577 79.2116 76.8276 77.8918 77.9952 77.2755C79.163 76.6593 81.2974 76.6571 82.0088 77.6688C82.7202 78.6804 81.7391 80.3228 80.5715 80.9391C79.4038 81.5554 77.8804 81.235 77.1691 80.2232Z" fill="#363E44"/>
<path d="M63.879 80.459C62.6927 81.1229 61.11 80.8279 60.3438 79.8002C59.5775 78.7724 59.517 76.8634 60.7032 76.1995C61.8894 75.5357 63.8731 76.3685 64.6394 77.3962C65.4055 78.424 65.0651 79.7952 63.879 80.459Z" fill="#363E44"/>
<path d="M61.398 81.0579C60.833 81.8778 59.6077 82.1458 58.6613 81.6563C57.7148 81.1668 56.9103 79.8492 57.4753 79.0292C58.0403 78.2091 59.7609 78.1974 60.7074 78.6869C61.6537 79.1765 61.9631 80.238 61.398 81.0579Z" fill="#363E44"/>
<path d="M78.1738 82.8056C77.7971 81.3988 78.808 79.9938 80.4318 79.6674C82.0556 79.3411 84.5272 80.0461 84.9039 81.4528C85.2806 82.8595 83.4199 84.4354 81.796 84.7618C80.1723 85.0882 78.5505 84.2124 78.1738 82.8056Z" fill="#363E44"/>
<path d="M59.9988 91.6883C59.4848 93.4082 60.6774 95.1636 62.6628 95.6089C64.6481 96.0544 66.6742 95.021 67.1883 93.3011C67.7023 91.581 66.5096 89.8257 64.5244 89.3804C62.539 88.9349 60.513 89.9682 59.9988 91.6883Z" fill="#84524D"/>
<path d="M84.3788 95.4802L84.5695 103.31C84.596 104.4 83.5688 105.288 82.3104 105.264C81.9939 105.258 81.6515 105.249 81.2876 105.234C74.9889 104.984 69.2841 101.933 66.2094 97.1639C65.1794 95.5662 65.3948 93.5835 66.7507 92.1804L67.1976 91.718L69.073 92.3406C69.073 92.3406 71.0458 96.3861 72.9162 96.485C74.7868 96.5837 77.9626 94.9166 84.3788 95.4802Z" fill="#363E44"/>
<path d="M80.1047 98.1512C79.8773 98.1512 79.6488 98.11 79.4348 98.0256C78.8752 97.8051 78.5013 97.3165 78.4823 96.7809C78.4803 96.7241 78.5318 96.6768 78.5974 96.675C78.5985 96.675 78.5999 96.675 78.601 96.675C78.6648 96.675 78.7175 96.719 78.7195 96.7747C78.7357 97.2326 79.055 97.6502 79.5329 97.8386C80.0293 98.0342 80.6164 97.9578 81.0293 97.6441C81.0783 97.6069 81.1532 97.6109 81.1966 97.6537C81.2398 97.6963 81.2348 97.7612 81.1856 97.7986C80.8808 98.0302 80.4943 98.1512 80.1047 98.1512Z" fill="#84524D"/>
<path d="M68.4025 86.3267C68.3816 86.3267 68.3605 86.322 68.3415 86.3119L63.6735 83.879C63.6174 83.8498 63.5992 83.7867 63.633 83.7381C63.6667 83.6895 63.7396 83.6736 63.7957 83.703L68.4637 86.1359C68.5198 86.1651 68.5379 86.2282 68.5041 86.2769C68.482 86.3089 68.4427 86.3267 68.4025 86.3267Z" fill="#84524D"/>
<path d="M96.5518 109.176C117.19 125.591 137.752 145.999 129.942 152.259C125.412 155.891 108.138 150.373 91.0615 138.169C95.9769 131.789 84.2639 115.065 96.5518 109.176Z" fill="#84524D"/>
<path d="M92.8916 125.031C92.8916 119.979 94.1087 115.334 96.1455 111.662C96.6626 110.556 97.1524 110.346 97.8591 109.478C82.8793 103.355 65.2177 101.32 49.3475 105.438C44.3256 106.741 44.7843 106.663 41.2668 107.696C42.6491 110.162 43.476 113.27 43.476 116.651C43.476 123.088 40.4856 128.542 36.3494 130.434C34.5835 134.251 38.856 162.128 37.2037 166.709C56.5508 168.068 62.5639 169.2 96.029 167.841C96.6391 164.292 97.8591 164.141 100.997 144.209C94.3881 141.945 92.8916 135.184 92.8916 125.031Z" fill="#363E44"/>
<path d="M42.1711 107.59C15.2421 112.8 -5.12764 155.688 8.96752 162.405C20.6264 167.961 35.2933 140.128 41.8171 130.2C46.0928 122.313 50.3562 111.831 42.1711 107.59Z" fill="#84524D"/>
<path d="M11.9271 141.299C20.9655 136.396 41.565 123.892 43.6337 122.744C47.501 120.599 68.6131 109.574 70.8558 112.162C71.9275 113.399 67.9756 115.689 66.6127 116.428C68.0665 116.324 73.577 115.384 74.3428 116.986C75.2424 118.867 68.9078 120.885 68.8339 120.972C70.2923 120.733 76.0492 119.569 76.6752 120.751C77.4897 122.29 72.5617 124.809 71.0443 125.501C71.318 125.616 77.1728 124.642 77.6279 125.601C78.1323 126.663 73.6046 129.111 71.9192 130.232C68.4851 132.141 55.6161 140.209 49.5867 144.398C35.4258 154.238 28.6001 158.048 20.7624 161.707C17.6942 163.139 13.8046 163.632 10.9249 162.725C7.27955 161.577 5.49185 158.856 6.65926 155.671C8.41542 150.879 10.1683 146.137 11.9271 141.299Z" fill="#84524D"/>
<path d="M9.10495 142.568C9.06535 142.568 9.02669 142.551 9.00416 142.519C8.96953 142.471 8.98649 142.408 9.04198 142.378C9.7818 141.978 10.7693 141.189 12.1363 140.096C16.4508 136.647 24.4816 130.228 40.5499 123.353C40.6085 123.328 40.6798 123.349 40.7087 123.4C40.7377 123.451 40.7135 123.513 40.6549 123.538C24.6174 130.399 16.6028 136.805 12.2972 140.247C10.9209 141.347 9.92635 142.142 9.16756 142.552C9.148 142.563 9.1263 142.568 9.10495 142.568Z" fill="#363E44"/>
<path d="M67.0832 131.158L55.1872 118.964C52.1225 115.822 52.5776 111.123 56.2038 108.468L63.8711 103.74C67.8821 100.803 77.3445 101.058 80.7344 104.532L88.1693 112.389C91.8623 116.174 91.3139 121.837 86.9443 125.036L77.5451 131.918C74.4137 134.211 69.7298 133.871 67.0832 131.158Z" fill="#D87355"/>
<path d="M54.1976 116.424L43.5182 121.499L59.2041 138.825L70.6687 131.6L54.1976 116.424Z" fill="#D87355"/>
<path d="M72.7603 130.268C72.7508 130.268 72.7411 130.267 72.7315 130.265C72.6679 130.251 72.6293 130.195 72.6453 130.14C73.4559 127.331 80.8801 122.092 85.2987 120.065C86.8074 119.373 87.8366 119.106 88.3573 119.272C88.7815 119.407 89.34 120.002 89.5396 120.838C89.7314 121.642 89.7193 123.265 87.4829 125.106C87.4355 125.145 87.3604 125.143 87.3153 125.102C87.2701 125.061 87.2721 124.996 87.3196 124.957C89.4726 123.185 89.4891 121.642 89.3073 120.879C89.1139 120.069 88.5876 119.564 88.2756 119.465C87.8336 119.325 86.8156 119.602 85.4097 120.246C81.028 122.256 73.6713 127.432 72.8753 130.19C72.8618 130.237 72.8134 130.268 72.7603 130.268Z" fill="#363E44"/>
<path d="M54.4591 127.399C54.4252 127.399 54.3919 127.386 54.3685 127.363L47.0481 119.888C47.0057 119.844 47.0118 119.78 47.0617 119.743C47.1118 119.706 47.1866 119.712 47.2289 119.755L54.4852 127.164L59.2419 124.778L51.7554 117.398C51.7121 117.355 51.717 117.29 51.7662 117.253C51.8154 117.215 51.8904 117.219 51.9335 117.262L59.5155 124.737C59.539 124.76 59.5492 124.791 59.5433 124.821C59.5376 124.851 59.5164 124.878 59.4858 124.893L54.5183 127.385C54.4999 127.394 54.4794 127.399 54.4591 127.399Z" fill="#363E44"/>
<path d="M111.196 135.181C111.196 135.18 111.196 135.179 111.196 135.179C132.481 123.24 147.318 114.416 152.021 111.848C152.514 111.579 153.381 111.101 154.66 110.767C159.399 109.531 162.202 112.259 167.869 112.929C174.301 113.69 178.419 110.963 179.306 112.177C179.923 113.021 178.703 114.428 175.212 116.28C175.212 116.28 175.212 116.281 175.213 116.281C178.052 115.138 181.98 113.733 182.705 115.094C183.444 116.704 179.053 118.824 176.323 119.994C179.627 118.578 181.872 118.681 182.058 119.528C182.35 120.859 180.084 122.474 175.634 124.199C175.634 124.199 175.634 124.199 175.634 124.199C179.091 123.752 179.999 122.436 179.953 123.219C179.868 124.648 176.186 127.66 172.712 128.428C168.802 129.292 165.423 128.787 163.301 128.424C163.301 128.424 163.3 128.424 163.299 128.425C149.393 138.126 140.465 144.38 129.418 152.413C127.158 154.056 123.757 153.669 122.061 151.577C117.477 145.921 115.012 142.666 111.196 135.181Z" fill="#84524D"/>
<path d="M111.438 135.146C111.399 135.146 111.361 135.13 111.338 135.1C111.302 135.052 111.318 134.988 111.373 134.957C116.078 132.318 120.739 129.678 125.625 126.888C125.68 126.857 125.753 126.87 125.789 126.917C125.825 126.965 125.81 127.028 125.756 127.06C120.869 129.85 116.207 132.49 111.502 135.13C111.482 135.141 111.46 135.146 111.438 135.146Z" fill="#363E44"/>
<path d="M162.505 113.365C167.662 110.049 168.711 107.906 168.078 107.214C167.014 106.052 161.274 107.322 153.032 111.346C155.613 112.114 159.924 112.598 162.505 113.365Z" fill="#84524D"/>
<path d="M184.005 112.234L184.225 112.503C187.225 116.179 186.602 121.939 183.09 125.258L179.019 129.373C177.254 131.364 173.843 131.497 171.878 129.651L167.927 125.937L184.005 112.234Z" fill="#D87355"/>
<path d="M158.829 126.394L150.106 116.208C147.278 112.904 148.076 108.239 151.889 105.789L159.887 101.491C164.105 98.7805 176.301 102.804 179.43 106.458L183.503 111.457C186.912 115.438 185.95 121.059 181.355 124.012L174.515 128.409C169.541 131.605 162.518 130.703 158.829 126.394Z" fill="#D87355"/>
<path d="M149.364 112.8L138.645 118.689L152.662 136.251L164.632 129.669L149.364 112.8Z" fill="#D87355"/>
<path d="M154.88 133.961C154.84 133.961 154.801 133.943 154.778 133.911L149.393 126.103C149.376 126.08 149.372 126.051 149.38 126.024C149.388 125.998 149.408 125.975 149.436 125.961L154.312 123.558C154.368 123.53 154.441 123.547 154.473 123.596L160.128 132.087C160.161 132.136 160.142 132.199 160.085 132.227C160.028 132.255 159.956 132.238 159.923 132.189L154.327 123.787L149.659 126.088L154.982 133.806C155.016 133.854 154.997 133.917 154.941 133.947C154.922 133.956 154.901 133.961 154.88 133.961Z" fill="#363E44"/>
<path d="M160.085 115.719C157.238 115.719 153.674 114.45 150.747 113.137C150.689 113.111 150.666 113.049 150.696 112.999C150.726 112.949 150.798 112.929 150.856 112.955C155.125 114.87 160.76 116.699 163.387 114.548C164.592 112.639 162.026 110.378 156.873 106.878C156.821 106.843 156.812 106.779 156.852 106.734C156.893 106.689 156.967 106.681 157.019 106.717C162.287 110.295 164.894 112.621 163.585 114.662C163.58 114.671 163.572 114.679 163.564 114.686C162.675 115.421 161.464 115.719 160.085 115.719Z" fill="#363E44"/>
<path d="M175.287 131.139C175.122 131.139 174.957 131.131 174.79 131.115C173.573 130.999 172.494 130.469 171.754 129.623L167.7 124.991C166.331 123.426 165.871 121.441 166.438 119.545C167.341 116.525 167.206 114.557 165.998 113.162L163.514 110.331C163.475 110.286 163.485 110.221 163.537 110.187C163.589 110.153 163.664 110.161 163.703 110.206L166.187 113.038C167.796 114.896 167.289 117.519 166.667 119.596C166.118 121.432 166.564 123.353 167.889 124.867L171.943 129.499C172.644 130.3 173.664 130.801 174.816 130.911C175.967 131.021 177.086 130.726 177.97 130.08C178.194 129.868 184.993 123.41 185.195 122.073C185.203 122.017 185.262 121.977 185.328 121.985C185.393 121.992 185.439 122.044 185.43 122.1C185.216 123.516 178.428 129.95 178.14 130.224C178.136 130.227 178.133 130.23 178.129 130.233C177.321 130.825 176.327 131.139 175.287 131.139Z" fill="#363E44"/>
</g>
<defs>
<filter id="filter0_d_725_13070" x="0" y="0" width="225" height="196" filterUnits="userSpaceOnUse" color-interpolation-filters="sRGB">
<feFlood flood-opacity="0" result="BackgroundImageFix"/>
<feColorMatrix in="SourceAlpha" type="matrix" values="0 0 0 0 0 0 0 0 0 0 0 0 0 0 0 0 0 0 127 0" result="hardAlpha"/>
<feOffset dy="4"/>
<feGaussianBlur stdDeviation="2"/>
<feComposite in2="hardAlpha" operator="out"/>
<feColorMatrix type="matrix" values="0 0 0 0 0 0 0 0 0 0 0 0 0 0 0 0 0 0 0.25 0"/>
<feBlend mode="normal" in2="BackgroundImageFix" result="effect1_dropShadow_725_13070"/>
<feBlend mode="normal" in="SourceGraphic" in2="effect1_dropShadow_725_13070" result="shape"/>
</filter>
</defs>
</svg>
