<svg width="170" height="192" viewBox="0 0 170 192" fill="none" xmlns="http://www.w3.org/2000/svg">
<path d="M84.6483 88.0822C84.6483 88.0822 114.687 88.7069 119.391 88.7048C123.198 88.7037 125.467 85.6466 123.258 82.5801C122.555 81.6053 121.498 80.9354 120.308 80.7124L90.0102 77.8079L84.6483 88.0822Z" fill="#E6BDA0"/>
<path d="M118.959 80.5505L150.944 77.2263L152.403 80.9448L121.395 88.2599L118.959 80.5505Z" fill="#E6BDA0"/>
<path d="M90.0112 77.8092C90.0112 77.8092 94.3433 75.9952 99.3615 78.7662C104.379 81.5372 95.055 83.407 95.055 83.407L90.0112 77.8092Z" fill="#E6BDA0"/>
<path d="M148.228 80.9585C148.228 80.9585 148.795 77.1443 154.452 75.5574C158.333 74.4679 169.241 72.3479 169.964 73.9127C170.578 75.2409 163.109 75.8476 158.508 78.5198L162.95 78.4472C163.714 78.5745 164.266 79.0088 164.027 79.7376C163.841 80.3054 163.276 80.6661 162.676 80.5988L156.81 81.2561C156.81 81.2561 151.058 82.8062 148.228 80.9585Z" fill="#E6BDA0"/>
<path d="M89.091 73.7011C89.091 73.7011 83.6472 67.6858 75.6811 71.3086C67.7149 74.9315 68.2447 80.9236 61.2594 82.7723C54.2741 84.6222 50.7038 83.2498 50.7038 83.2498L49.4836 101.832C49.4836 101.832 61.0945 100.987 70.6362 96.7884C70.6362 96.7884 82.7823 98.819 86.9047 94.0331C89.0006 91.5997 90.3708 87.8727 90.8123 84.5769C91.4953 79.4713 91.3421 77.5816 89.5378 74.4698L89.091 73.7011Z" fill="#DC6D75"/>
<path d="M36.1566 21.2128C36.1566 21.2128 34.5459 7.25459 28.3777 13.3624C22.2094 19.4713 27.1553 23.8081 33.5214 26.7632L36.1566 21.2128Z" fill="#E6BDA0"/>
<path d="M53.572 53.3238C53.5826 53.7592 63.5573 67.6668 69.4266 76.8159C71.8246 80.5534 77.1885 80.9394 80.1131 77.5878C82.2716 75.1134 82.2727 71.4495 80.1152 68.974L59.2828 47.8123L53.572 53.3238Z" fill="#E6BDA0"/>
<path d="M59.5711 50.7895C59.5711 50.7895 59.603 43.2451 53.056 38.0922C46.509 32.9393 36.1555 21.2126 36.1555 21.2126L33.5204 26.7631C33.5204 26.7631 49.0421 50.413 53.5869 53.9622C58.1317 57.5104 59.5711 50.7895 59.5711 50.7895Z" fill="#E6BDA0"/>
<path d="M31.5224 142.695L40.8663 143.573C44.5898 128.232 44.5951 109.347 44.5951 109.347L28.7745 103.907C25.8446 109.747 31.5224 142.695 31.5224 142.695Z" fill="#E6BDA0"/>
<path d="M30.4511 162.986C31.5511 165.148 32.2246 167.498 32.5629 169.894L34.7427 181.4L40.3939 182.098L41.2014 140.542L31.5224 142.695C27.9362 151.688 28.834 159.807 30.4511 162.986Z" fill="#E6BDA0"/>
<path d="M46.2654 98.7697C46.2654 98.7697 45.1909 109.693 44.5291 112.801C44.5291 112.801 35.3693 115.178 27.7564 111.088C27.7564 111.088 25.2201 93.9501 27.4681 90.0233C29.7149 86.0966 46.2654 98.7697 46.2654 98.7697Z" fill="#0B1123"/>
<path d="M34.5342 181.349C34.5342 181.349 32.4192 185.145 32.3129 188.159C32.282 189.043 32.9916 189.781 33.8842 189.841L55.273 191.28C56.205 191.343 56.9922 190.603 56.9752 189.679C56.9635 189.061 56.5869 188.506 56.0124 188.262L39.5748 181.258L34.5342 181.349Z" fill="#E6BDA0"/>
<path d="M11.0985 53.6038L0.837547 56.6745C7.76539 70.8871 19.3881 83.4793 19.3881 83.4793L29.8479 74.3312C28.3819 67.9742 11.0985 53.6038 11.0985 53.6038Z" fill="#E6BDA0"/>
<path d="M21.1328 39.3594C21.3445 36.948 22.019 34.5998 23.003 32.384L26.8127 23.808L23.5265 18.0693L0.0641403 52.8864L10.6538 54.5353C18.4827 48.7409 20.8221 42.9055 21.1328 39.3594Z" fill="#E6BDA0"/>
<path d="M0.0651868 52.8862C0.0651868 52.8862 -0.332698 54.3711 0.837546 56.6752C2.00779 58.9793 10.3633 53.6045 10.3633 53.6045L0.0651868 52.8862Z" fill="#E6BDA0"/>
<path d="M24.6744 23.6535C24.6744 23.6535 28.9341 24.6777 31.9043 23.99C32.7756 23.7881 33.3118 22.9173 33.1363 22.0508L28.9426 1.26762C28.7596 0.362176 27.8319 -0.195188 26.934 0.0635109C26.3329 0.235977 25.8903 0.740753 25.802 1.3528L23.2669 18.8675L24.6744 23.6535Z" fill="#E6BDA0"/>
<path d="M25.568 10.3166L25.7478 10.4301C27.0712 11.2682 27.7489 12.8141 27.4638 14.3421L27.0744 16.4243C26.7882 17.9545 25.2223 18.8999 23.7148 18.454C22.9573 18.23 22.4647 17.5086 22.5371 16.7304L23.0179 11.549C23.1307 10.3229 24.519 9.65193 25.568 10.3166Z" fill="#E6BDA0"/>
<path d="M31.132 12.114C31.132 12.114 33.9597 22.4756 32.932 23.2328C31.9054 23.99 29.3915 24.2255 29.3915 24.2255" stroke="#CE9E80" stroke-width="0.6309" stroke-miterlimit="10"/>
<path d="M23.4041 18.3283C23.4041 18.3283 27.4925 19.2737 27.4627 14.3426C27.4329 9.41158 24.5403 10.0731 24.5403 10.0731" stroke="#CE9E80" stroke-width="0.6309" stroke-miterlimit="10"/>
<path d="M49.4825 101.832C49.4825 101.832 32.1597 101.605 19.3881 83.4788C19.3881 83.4788 21.1807 74.0268 26.3691 68.4963L31.6479 75.9544C31.6479 75.9544 45.809 73.3044 50.7027 83.2495C50.7027 83.2495 53.3475 99.6191 49.4825 101.832Z" fill="#0C1439"/>
<path d="M92.6762 60.7188L83.8142 71.1466L86.9175 80.3157L98.7433 66.4396L92.6762 60.7188Z" fill="#E6BDA0"/>
<path d="M83.8142 71.1467C83.8142 71.1467 80.895 87.7823 86.6771 87.796C90.9517 87.8055 89.5399 71.152 89.5399 71.152L83.8142 71.1467Z" fill="#E6BDA0"/>
<path d="M84.8323 50.7276C84.8323 50.7276 88.858 44.7008 83.6727 42.7164C78.7609 40.8371 75.8853 47.7936 75.7193 48.6948C75.5534 49.5961 73.731 54.545 77.8737 57.1068C82.0163 59.6685 84.8323 50.7276 84.8323 50.7276Z" fill="#1F2326"/>
<path d="M88.842 49.3076C88.842 49.3076 86.7569 47.0834 84.527 49.1372C82.2961 51.1911 83.5344 54.4038 85.2866 54.6856C87.0388 54.9674 89.5091 50.6169 89.5091 50.6169L88.842 49.3076Z" fill="#DC6D75"/>
<path d="M84.5057 54.0746C82.8695 60.6041 86.8984 67.2083 93.5038 68.8257C100.109 70.4431 106.79 66.4606 108.427 59.9311C110.063 53.4016 106.944 47.0203 100.338 45.403C93.7315 43.7845 86.1409 47.5451 84.5057 54.0746Z" fill="#1F2326"/>
<path d="M105.311 49.1375C105.311 49.1375 111.96 50.3815 111.31 55.5976C110.779 59.8566 104.172 59.3298 104.172 59.3298L105.311 49.1375Z" fill="#1F2326"/>
<path d="M104.201 51.1197C109.965 52.531 108.969 57.0141 108.969 57.0141L107.358 67.6554C106.455 70.8828 105.061 73.534 102.085 74.3889C100.206 74.9284 98.1774 74.5362 96.5018 73.5392L91.6198 70.6378L95.0369 52.5573C95.0348 52.5573 98.437 49.7085 104.201 51.1197Z" fill="#E6BDA0"/>
<path d="M107.613 62.5864L109.465 66.3249C109.682 66.8528 109.471 67.4102 108.95 67.6805L106.613 68.2084L107.613 62.5864Z" fill="#E6BDA0"/>
<path d="M106.754 63.1197C106.622 63.4962 106.206 63.6959 105.824 63.5655C105.444 63.4351 105.241 63.024 105.373 62.6464C105.505 62.27 105.921 62.0701 106.303 62.2005C106.684 62.332 106.886 62.7432 106.754 63.1197Z" fill="#1F2326"/>
<path d="M104.242 59.749C104.283 59.7669 104.326 59.7816 104.371 59.7911L107.121 60.3621C107.482 60.441 107.838 60.217 107.919 59.8605C108 59.504 107.774 59.1527 107.412 59.0707L104.662 58.4997C104.301 58.4208 103.945 58.6448 103.864 59.0013C103.793 59.3136 103.958 59.6228 104.242 59.749Z" fill="#1F2326"/>
<path d="M106.539 69.5388C106.539 69.5388 105.135 69.5977 103.991 68.259" stroke="#CF9580" stroke-width="0.5447" stroke-miterlimit="10" stroke-linecap="round" stroke-linejoin="round"/>
<path d="M94.0411 72.0775C94.0411 72.0775 92.7943 70.0826 92.7081 67.2327C92.7081 67.2327 91.3431 70.2393 92.5581 73.6991L94.0411 72.0775Z" fill="#CF9580"/>
<path d="M107.78 53.0294C107.78 53.0294 105.491 59.6325 95.2539 59.1078L91.1485 57.2832C91.1485 57.2832 95.2933 47.9112 97.1986 48.3097C99.104 48.7062 107.513 50.231 107.78 53.0294Z" fill="#1F2326"/>
<path d="M100.633 56.9763L97.2454 62.6246L96.854 57.2361L100.633 56.9763Z" fill="#1F2326"/>
<path d="M94.7294 63.2778C94.7294 63.2778 91.6804 66.3769 88.2122 66.0467L88.708 59.6592L94.7294 63.2778Z" fill="#1F2326"/>
<path d="M97.9295 61.3613C97.754 63.1554 96.1412 64.4689 94.3262 64.2954C92.5113 64.1218 91.1825 62.5276 91.358 60.7335C91.5336 58.9395 93.1464 57.627 94.9613 57.8006C96.7763 57.973 98.105 59.5673 97.9295 61.3613Z" fill="#E6BDA0"/>
</svg>
